<svg xmlns="http://www.w3.org/2000/svg" xmlns:xlink="http://www.w3.org/1999/xlink" width="153px" height="33px">
<defs>
<filter id="Filter_0">
    <feFlood flood-color="rgb(254, 192, 7)" flood-opacity="1" result="floodOut"></feFlood>
    <feComposite operator="atop" in="floodOut" in2="SourceGraphic" result="compOut"></feComposite>
    <feBlend mode="normal" in="compOut" in2="SourceGraphic"></feBlend>
</filter>

</defs>
<path fill-rule="evenodd" fill="rgb(51, 51, 51)" d="M32.995,19.262 L32.999,19.262 C32.908,21.631 32.101,24.197 30.863,26.566 C30.863,26.566 27.908,32.550 18.630,32.550 C9.351,32.550 6.343,26.618 6.343,26.618 C5.102,24.239 4.349,21.689 4.255,19.265 L4.262,19.265 C4.257,19.198 4.255,19.137 4.255,19.075 C4.255,17.937 4.959,16.872 6.171,15.952 L7.463,16.780 C6.663,17.316 6.201,17.916 6.201,18.553 C6.201,20.793 11.765,22.612 18.630,22.612 C25.492,22.612 31.055,20.793 31.055,18.553 C31.055,17.002 28.386,15.655 24.469,14.971 L24.485,13.342 C29.502,14.322 33.001,16.517 33.001,19.075 C33.001,19.137 32.999,19.198 32.995,19.262 Z"></path>
<g filter="url(#Filter_0)">
<path fill-rule="evenodd" fill="rgb(235, 182, 40)" d="M9.032,9.612 C8.983,9.993 8.921,10.601 9.389,11.431 C9.971,12.436 10.715,12.783 10.957,12.954 C10.916,12.695 10.987,11.921 10.442,10.981 C9.971,10.136 9.458,9.761 9.152,9.468 C8.294,8.231 7.326,7.239 6.588,6.455 L4.831,4.628 C4.829,4.628 5.461,5.361 6.515,6.516 C7.236,7.328 8.192,8.357 9.032,9.612 ZM13.431,19.277 C13.807,19.630 14.282,20.211 15.341,20.797 C16.525,21.459 17.526,21.459 17.864,21.534 C17.673,21.225 17.290,20.246 15.982,19.521 C14.909,18.931 14.107,19.045 13.613,19.130 C11.993,18.185 10.606,17.223 9.485,16.531 C7.886,15.546 6.847,15.043 6.851,15.043 C6.847,15.045 7.859,15.598 9.424,16.631 C10.499,17.345 11.838,18.324 13.431,19.277 ZM14.387,14.124 C14.258,14.560 14.074,15.265 14.487,16.305 C14.982,17.575 15.805,18.104 16.059,18.345 C16.061,18.033 16.278,17.152 15.811,15.957 C15.398,14.896 14.862,14.369 14.553,13.979 C13.752,12.390 12.774,11.071 12.024,10.044 L10.230,7.624 L11.925,10.097 C12.654,11.163 13.607,12.518 14.387,14.124 ZM11.371,16.703 C11.728,17.019 12.184,17.554 13.183,18.081 C14.299,18.667 15.231,18.647 15.543,18.707 C15.360,18.427 14.979,17.530 13.748,16.882 C12.738,16.356 11.996,16.472 11.538,16.558 C10.014,15.708 8.703,14.836 7.653,14.206 C6.145,13.307 5.168,12.853 5.174,12.850 C5.170,12.853 6.120,13.357 7.591,14.300 C8.602,14.950 9.871,15.841 11.371,16.703 ZM9.218,14.163 C9.554,14.453 9.986,14.941 10.916,15.407 C11.960,15.936 12.824,15.899 13.115,15.949 C12.940,15.694 12.569,14.878 11.421,14.300 C10.479,13.829 9.793,13.949 9.373,14.030 C7.946,13.267 6.721,12.470 5.739,11.899 C4.334,11.083 3.423,10.671 3.427,10.667 C3.423,10.672 4.311,11.128 5.686,11.984 C6.633,12.577 7.816,13.388 9.218,14.163 ZM7.025,10.464 C7.653,11.028 8.253,11.060 8.592,11.170 C8.519,10.897 8.581,10.217 7.865,9.579 C7.251,9.054 6.633,9.011 6.316,8.987 C3.793,6.826 1.556,5.435 1.042,5.106 L0.926,5.027 C0.907,5.044 3.372,6.671 6.259,9.202 C6.351,9.515 6.520,10.033 7.025,10.464 ZM6.982,11.657 C7.294,11.924 7.696,12.369 8.561,12.783 C9.524,13.262 10.322,13.213 10.591,13.255 C10.422,13.025 10.069,12.293 9.011,11.768 C8.136,11.351 7.508,11.455 7.121,11.534 C5.799,10.848 4.668,10.118 3.755,9.609 C2.456,8.859 1.609,8.496 1.612,8.491 C1.612,8.496 2.437,8.900 3.705,9.689 C4.584,10.217 5.679,10.958 6.982,11.657 ZM11.782,11.795 C11.693,12.203 11.570,12.865 12.017,13.796 C12.558,14.939 13.352,15.372 13.599,15.575 C13.578,15.291 13.713,14.464 13.209,13.392 C12.756,12.443 12.231,11.989 11.924,11.650 C11.085,10.238 10.112,9.079 9.361,8.177 L7.578,6.055 L9.276,8.235 C10.009,9.170 10.963,10.365 11.782,11.795 ZM21.700,14.222 C21.416,14.502 20.973,14.966 20.831,15.928 C20.651,17.098 21.042,17.838 21.129,18.124 C21.265,17.892 21.812,17.310 21.984,16.206 C22.128,15.227 21.952,14.603 21.888,14.178 C21.969,12.636 21.796,11.226 21.666,10.134 C21.474,8.543 21.334,7.552 21.336,7.552 L21.566,10.136 C21.666,11.248 21.804,12.678 21.700,14.222 ZM20.791,11.600 C20.545,11.877 20.165,12.334 20.092,13.234 C20.004,14.327 20.409,14.988 20.509,15.249 C20.620,15.024 21.090,14.446 21.174,13.421 C21.249,12.501 21.048,11.936 20.963,11.548 C20.944,10.118 20.708,8.828 20.528,7.826 L20.087,5.460 L20.440,7.832 C20.589,8.852 20.798,10.166 20.791,11.600 ZM19.735,9.030 C19.526,9.297 19.204,9.744 19.196,10.576 C19.183,11.590 19.603,12.173 19.712,12.405 C19.795,12.186 20.186,11.626 20.200,10.674 C20.209,9.826 19.994,9.324 19.889,8.971 C19.783,7.657 19.494,6.486 19.269,5.577 L18.730,3.427 L19.183,5.591 C19.382,6.520 19.649,7.710 19.735,9.030 ZM21.595,21.034 C21.758,20.795 22.391,20.215 22.656,19.041 C22.886,18.001 22.740,17.319 22.698,16.857 C22.890,15.206 22.790,13.676 22.715,12.495 C22.606,10.771 22.510,9.699 22.510,9.699 L22.610,12.492 C22.648,13.693 22.710,15.238 22.493,16.889 C22.167,17.173 21.664,17.638 21.445,18.657 C21.169,19.898 21.522,20.718 21.595,21.034 ZM16.320,7.340 C16.450,7.636 16.583,8.097 17.062,8.688 C17.590,9.360 18.179,9.585 18.358,9.705 C18.319,9.480 18.325,8.828 17.744,8.091 C17.261,7.495 16.771,7.365 16.463,7.295 C15.756,6.354 15.197,5.446 14.717,4.768 C14.044,3.789 13.562,3.242 13.566,3.239 C13.562,3.241 14.015,3.813 14.652,4.809 C15.101,5.492 15.627,6.398 16.320,7.340 ZM16.773,6.478 C17.032,7.100 17.451,7.324 17.657,7.514 C17.699,7.292 17.984,6.813 17.692,6.106 C17.437,5.519 17.002,5.284 16.784,5.163 C15.725,2.742 14.605,0.981 14.348,0.566 L14.293,0.472 C14.274,0.478 15.478,2.487 16.666,5.300 C16.623,5.559 16.561,5.995 16.773,6.478 ZM17.834,11.394 C18.400,12.127 19.035,12.384 19.231,12.518 C19.194,12.272 19.215,11.554 18.592,10.747 C18.079,10.091 17.541,9.948 17.207,9.870 C16.446,8.839 15.845,7.850 15.339,7.105 C14.613,6.041 14.107,5.439 14.107,5.435 C14.107,5.438 14.584,6.066 15.270,7.150 C15.745,7.896 16.309,8.885 17.049,9.921 C17.188,10.242 17.329,10.740 17.834,11.394 ZM18.521,6.520 C18.354,6.782 18.095,7.207 18.137,7.969 C18.202,8.900 18.617,9.400 18.730,9.606 C18.793,9.404 19.116,8.859 19.056,7.989 C19.016,7.212 18.776,6.767 18.661,6.452 C18.480,5.263 18.131,4.213 17.876,3.396 L17.252,1.470 C17.250,1.470 17.449,2.219 17.802,3.415 C18.033,4.248 18.358,5.320 18.521,6.520 ZM17.708,12.492 C17.849,12.847 17.990,13.388 18.521,14.101 C19.121,14.902 19.801,15.195 20.008,15.345 C19.975,15.076 20.015,14.295 19.357,13.414 C18.814,12.692 18.237,12.531 17.876,12.443 C17.074,11.314 16.439,10.240 15.905,9.430 C15.135,8.273 14.592,7.616 14.594,7.614 C14.592,7.616 15.097,8.300 15.828,9.478 C16.329,10.289 16.925,11.363 17.708,12.492 ZM9.924,19.556 C9.922,19.561 10.809,20.065 12.197,21.043 C12.295,21.066 12.391,21.087 12.493,21.109 C10.938,20.072 9.922,19.559 9.924,19.556 ZM20.998,21.510 C20.789,21.184 20.572,20.944 20.355,20.762 C20.282,20.561 20.204,20.373 20.125,20.211 C20.597,20.690 21.036,20.930 21.199,21.062 C21.199,21.041 21.199,21.013 21.199,20.981 C21.259,21.172 21.311,21.364 21.370,21.560 C21.458,21.552 21.545,21.547 21.633,21.539 C21.470,20.983 21.290,20.444 21.094,19.935 C21.027,19.660 20.915,19.359 20.731,19.038 C20.559,18.634 20.384,18.248 20.213,17.880 C20.426,18.024 20.595,18.120 20.681,18.188 C20.656,17.897 20.724,17.051 20.037,16.087 C19.632,15.522 19.198,15.270 18.843,15.133 L17.753,13.013 C17.751,13.013 18.108,13.786 18.722,15.090 C18.630,15.060 18.542,15.035 18.469,15.013 C17.631,13.783 16.970,12.619 16.405,11.741 C15.601,10.491 15.026,9.781 15.031,9.779 C15.029,9.783 15.560,10.519 16.325,11.795 C16.845,12.674 17.470,13.837 18.281,15.065 C18.425,15.445 18.567,16.031 19.121,16.812 C19.382,17.178 19.655,17.444 19.906,17.648 C20.000,17.863 20.100,18.085 20.196,18.317 C19.728,17.844 19.256,17.693 18.935,17.598 C18.843,17.455 18.755,17.314 18.668,17.173 C18.127,16.014 17.547,14.990 17.062,14.136 C15.992,12.265 15.296,11.119 15.300,11.119 L16.937,14.188 C17.062,14.419 17.190,14.670 17.327,14.923 C17.147,14.617 16.976,14.327 16.816,14.062 C15.982,12.711 15.379,11.945 15.381,11.944 C15.376,11.947 15.937,12.740 16.727,14.117 C17.190,14.927 17.725,15.966 18.392,17.084 C18.684,17.736 18.964,18.427 19.211,19.158 C19.144,19.309 19.069,19.492 19.002,19.714 C18.262,18.450 17.665,17.282 17.128,16.381 C16.955,16.082 16.794,15.821 16.645,15.578 C15.970,14.191 15.197,12.996 14.575,12.038 C13.489,10.360 12.787,9.326 12.789,9.326 L14.466,12.091 C15.184,13.282 16.125,14.806 16.850,16.583 C16.682,17.043 16.433,17.789 16.799,18.935 C17.239,20.332 18.083,20.960 18.338,21.239 C18.363,20.925 18.626,20.079 18.315,18.884 C18.509,19.242 18.709,19.615 18.931,19.996 C18.839,20.428 18.818,20.968 18.985,21.660 C19.678,21.654 20.363,21.631 21.036,21.585 C21.019,21.560 21.011,21.534 20.998,21.510 ZM11.220,18.914 C9.532,17.832 8.431,17.284 8.434,17.282 C8.431,17.284 9.498,17.885 11.147,19.018 C12.103,19.676 13.270,20.549 14.613,21.439 C14.780,21.459 14.949,21.472 15.116,21.489 C13.605,20.536 12.293,19.601 11.220,18.914 ZM23.381,19.584 C23.696,17.828 23.675,16.178 23.675,14.906 L23.612,11.897 C23.612,11.897 23.583,13.046 23.560,14.898 C23.525,16.188 23.504,17.849 23.157,19.601 C22.794,19.881 22.230,20.347 21.908,21.416 C21.900,21.451 21.896,21.483 21.888,21.517 C22.372,21.472 22.844,21.418 23.305,21.355 C23.456,20.565 23.389,19.988 23.381,19.584 Z"></path>
</g>
<path fill-rule="evenodd" fill="rgb(34, 34, 34)" d="M149.203,29.269 L149.203,22.648 C149.203,20.998 148.767,20.494 147.805,20.494 C146.957,20.494 146.431,20.883 145.697,21.594 L145.697,29.269 L142.330,29.269 L142.330,17.905 L145.079,17.905 L145.308,19.348 L145.400,19.348 C146.362,18.432 147.507,17.630 149.042,17.630 C151.517,17.630 152.570,19.371 152.570,22.212 L152.570,29.269 L149.203,29.269 ZM134.494,29.544 C131.607,29.544 128.950,27.367 128.950,23.587 C128.950,19.807 131.607,17.630 134.494,17.630 C137.358,17.630 140.015,19.807 140.015,23.587 C140.015,27.367 137.358,29.544 134.494,29.544 ZM134.494,20.357 C133.096,20.357 132.409,21.617 132.409,23.587 C132.409,25.557 133.096,26.817 134.494,26.817 C135.868,26.817 136.579,25.557 136.579,23.587 C136.579,21.617 135.868,20.357 134.494,20.357 ZM124.963,16.233 C123.841,16.233 123.016,15.500 123.016,14.469 C123.016,13.438 123.841,12.727 124.963,12.727 C126.109,12.727 126.911,13.438 126.911,14.469 C126.911,15.500 126.109,16.233 124.963,16.233 ZM119.808,26.909 C120.175,26.909 120.587,26.794 120.885,26.680 L121.412,29.131 C120.816,29.314 119.991,29.544 118.892,29.544 C116.074,29.544 114.974,27.779 114.974,25.145 L114.974,20.540 L113.416,20.540 L113.416,18.043 L115.157,17.905 L115.547,14.881 L118.342,14.881 L118.342,17.905 L121.068,17.905 L121.068,20.540 L118.342,20.540 L118.342,25.099 C118.342,26.382 118.915,26.909 119.808,26.909 ZM109.109,28.100 L109.017,28.100 C108.055,28.948 107.001,29.544 105.718,29.544 C103.633,29.544 102.327,28.032 102.327,26.107 C102.327,23.724 104.229,22.418 108.719,21.960 C108.650,20.952 108.169,20.311 106.932,20.311 C105.970,20.311 105.030,20.700 103.931,21.342 L102.717,19.119 C104.160,18.249 105.787,17.630 107.574,17.630 C110.483,17.630 112.087,19.280 112.087,22.762 L112.087,29.269 L109.338,29.269 L109.109,28.100 ZM108.719,23.976 C106.336,24.297 105.557,24.984 105.557,25.855 C105.557,26.588 106.061,26.932 106.863,26.932 C107.619,26.932 108.123,26.565 108.719,25.970 L108.719,23.976 ZM93.941,29.269 L90.115,17.905 L93.506,17.905 L94.972,23.266 C95.270,24.389 95.568,25.580 95.866,26.771 L95.957,26.771 C96.232,25.580 96.530,24.389 96.828,23.266 L98.317,17.905 L101.548,17.905 L97.836,29.269 L93.941,29.269 ZM86.679,16.233 C85.556,16.233 84.731,15.500 84.731,14.469 C84.731,13.438 85.556,12.727 86.679,12.727 C87.824,12.727 88.626,13.438 88.626,14.469 C88.626,15.500 87.824,16.233 86.679,16.233 ZM81.524,26.909 C81.890,26.909 82.303,26.794 82.600,26.680 L83.127,29.131 C82.532,29.314 81.707,29.544 80.607,29.544 C77.789,29.544 76.690,27.779 76.690,25.145 L76.690,20.540 L75.132,20.540 L75.132,18.043 L76.873,17.905 L77.262,14.881 L80.057,14.881 L80.057,17.905 L82.784,17.905 L82.784,20.540 L80.057,20.540 L80.057,25.099 C80.057,26.382 80.630,26.909 81.524,26.909 ZM72.772,29.544 C70.458,29.544 69.679,28.032 69.679,25.740 L69.679,13.209 L73.047,13.209 L73.047,25.878 C73.047,26.588 73.367,26.817 73.642,26.817 C73.780,26.817 73.871,26.817 74.055,26.771 L74.467,29.269 C74.101,29.429 73.528,29.544 72.772,29.544 ZM63.722,27.688 L63.653,27.688 C62.691,28.833 61.637,29.544 60.079,29.544 C57.605,29.544 56.551,27.802 56.551,24.962 L56.551,17.905 L59.919,17.905 L59.919,24.526 C59.919,26.153 60.354,26.680 61.339,26.680 C62.187,26.680 62.691,26.313 63.355,25.420 L63.355,17.905 L66.723,17.905 L66.723,29.269 L63.974,29.269 L63.722,27.688 ZM50.204,26.634 C51.419,26.634 52.381,26.015 53.114,25.236 L54.901,27.344 C53.664,28.788 52.014,29.544 50.067,29.544 C46.287,29.544 43.125,26.909 43.125,21.892 C43.125,16.943 46.401,14.056 50.182,14.056 C52.106,14.056 53.664,14.973 54.672,16.004 L52.885,18.157 C52.129,17.470 51.327,16.966 50.250,16.966 C48.211,16.966 46.585,18.776 46.585,21.777 C46.585,24.847 48.005,26.634 50.204,26.634 ZM88.374,29.269 L85.006,29.269 L85.006,17.905 L88.374,17.905 L88.374,29.269 ZM126.659,29.269 L123.291,29.269 L123.291,17.905 L126.659,17.905 L126.659,29.269 Z"></path>
</svg>