<?xml version="1.0" encoding="UTF-8"?> <svg xmlns="http://www.w3.org/2000/svg" xmlns:xlink="http://www.w3.org/1999/xlink" width="57px" height="14px"><defs><filter id="color_nine"><feFlood flood-color="rgb(254, 192, 7)" flood-opacity="1" result="floodOut"></feFlood><feComposite operator="atop" in="floodOut" in2="SourceGraphic" result="compOut"></feComposite><feBlend mode="normal" in="compOut" in2="SourceGraphic"></feBlend></filter></defs><path fill-rule="evenodd" fill="rgb(255, 197, 57)" d="M12.655,7.376 C12.551,8.315 12.284,9.245 11.862,10.140 C11.324,11.283 10.582,12.252 9.716,12.943 C8.851,13.634 7.928,13.999 7.045,13.999 C6.749,13.999 6.463,13.958 6.191,13.875 C6.886,13.124 8.052,11.502 8.809,8.522 C9.576,5.499 10.637,3.503 11.090,2.738 C11.732,3.194 12.207,3.909 12.472,4.824 C12.692,5.586 12.755,6.468 12.655,7.376 ZM6.267,12.545 C5.927,13.028 5.629,13.345 5.438,13.523 C4.747,13.072 4.238,12.333 3.961,11.372 C3.741,10.611 3.677,9.729 3.778,8.820 C3.881,7.882 4.148,6.951 4.570,6.056 C5.108,4.914 5.850,3.945 6.716,3.253 C7.581,2.562 8.505,2.198 9.388,2.198 C9.747,2.198 10.091,2.259 10.415,2.380 C9.905,3.254 8.867,5.267 8.098,8.298 C7.561,10.416 6.806,11.777 6.267,12.545 ZM4.611,4.437 C3.796,2.296 3.389,0.771 3.222,0.072 C4.707,-0.243 6.090,0.469 7.092,2.033 C6.819,2.189 6.550,2.373 6.286,2.583 C5.660,3.084 5.094,3.712 4.611,4.437 ZM3.916,5.673 C3.453,6.657 3.160,7.682 3.045,8.720 C2.932,9.746 3.005,10.750 3.258,11.624 C3.274,11.681 3.291,11.737 3.309,11.792 C2.841,11.539 2.408,11.160 2.014,10.656 C1.370,9.833 0.864,8.722 0.509,7.353 C0.262,6.401 0.166,5.408 0.233,4.481 C0.298,3.572 0.517,2.723 0.868,2.025 C1.275,1.215 1.838,0.628 2.513,0.307 C2.702,1.104 3.167,2.822 4.124,5.258 C4.052,5.394 3.982,5.533 3.916,5.673 Z"></path><g filter="url(#color_nine)"><path fill-rule="evenodd" fill="rgb(254, 192, 7)" d="M54.832,8.061 C54.025,8.342 53.128,8.450 52.286,8.205 C51.449,7.982 50.669,7.540 50.018,6.942 C49.692,6.642 49.400,6.302 49.149,5.930 L49.082,5.827 C49.064,5.802 49.049,5.776 49.034,5.750 C49.003,5.710 48.975,5.602 48.944,5.714 L48.854,5.899 C48.839,5.946 48.767,6.047 48.703,6.142 C48.353,6.687 47.855,7.197 47.248,7.569 C46.643,7.943 45.943,8.191 45.228,8.278 C44.514,8.367 43.783,8.292 43.139,8.050 C42.532,7.820 42.007,7.442 41.667,6.980 C41.658,6.989 41.654,6.997 41.643,7.006 C40.497,7.935 39.051,8.201 37.698,8.004 C37.018,7.897 36.350,7.667 35.746,7.285 C35.445,7.093 35.157,6.867 34.907,6.595 C34.769,6.470 34.665,6.313 34.552,6.162 L34.467,6.049 L34.425,5.991 L34.407,5.961 L34.343,5.850 C34.289,5.697 34.260,5.852 34.224,5.900 L34.154,6.016 L34.058,6.155 C33.995,6.250 33.926,6.341 33.855,6.429 C33.575,6.786 33.253,7.106 32.901,7.384 C32.194,7.938 31.369,8.321 30.487,8.465 C29.665,8.579 28.840,8.446 28.085,8.138 C27.342,7.824 26.612,7.333 26.211,6.560 C26.194,6.523 26.182,6.491 26.173,6.463 C26.163,6.489 26.151,6.517 26.135,6.547 C25.650,7.300 24.864,7.771 24.062,8.061 C23.255,8.342 22.358,8.450 21.516,8.205 C20.679,7.982 19.899,7.540 19.248,6.942 C18.922,6.642 18.630,6.302 18.379,5.930 L18.312,5.827 C18.294,5.802 18.278,5.776 18.264,5.750 C18.233,5.710 18.205,5.602 18.173,5.714 L18.083,5.899 C18.068,5.946 17.997,6.047 17.933,6.142 L17.761,5.855 L17.797,5.801 L17.841,5.710 L18.026,5.330 L18.140,5.097 L18.169,5.039 L18.183,5.009 C18.188,5.008 18.194,5.025 18.200,5.032 L18.268,5.146 L18.552,5.614 L18.660,5.775 L18.754,5.902 C18.816,5.988 18.882,6.069 18.951,6.148 C19.222,6.468 19.528,6.755 19.859,7.002 C20.520,7.493 21.297,7.824 22.080,7.928 C22.791,8.005 23.540,7.860 24.223,7.591 C24.902,7.318 25.559,6.937 26.005,6.363 C26.123,6.197 26.206,6.210 26.206,6.317 C26.259,6.322 26.345,6.390 26.419,6.509 C26.935,7.202 27.709,7.619 28.493,7.878 C29.285,8.129 30.137,8.219 30.933,7.982 C31.734,7.763 32.483,7.337 33.103,6.758 C33.414,6.469 33.691,6.140 33.925,5.781 C33.976,5.703 34.087,5.524 34.156,5.397 C34.234,5.287 34.319,5.002 34.384,5.256 L34.593,5.661 C34.627,5.720 34.667,5.814 34.696,5.847 L34.789,5.975 C35.129,6.473 35.628,6.905 36.210,7.197 C36.792,7.490 37.446,7.659 38.096,7.710 C39.392,7.814 40.631,7.470 41.597,6.887 C41.545,6.799 41.630,6.770 41.738,6.870 C42.238,7.372 42.877,7.699 43.539,7.859 C44.203,8.020 44.895,8.028 45.557,7.891 C46.218,7.756 46.854,7.485 47.405,7.083 C47.680,6.882 47.937,6.651 48.154,6.383 C48.275,6.260 48.363,6.107 48.459,5.963 L48.531,5.855 L48.567,5.801 L48.612,5.710 L48.796,5.330 L48.910,5.097 L48.939,5.039 L48.953,5.009 C48.958,5.008 48.964,5.025 48.970,5.032 L49.038,5.146 L49.322,5.614 L49.430,5.775 L49.524,5.902 C49.586,5.988 49.652,6.069 49.721,6.148 C49.992,6.468 50.298,6.755 50.629,7.002 C51.291,7.493 52.067,7.824 52.850,7.928 C53.561,8.005 54.310,7.860 54.993,7.591 C55.673,7.318 56.329,6.937 56.775,6.363 C56.953,6.112 57.056,6.264 56.905,6.547 C56.420,7.300 55.634,7.771 54.832,8.061 ZM17.841,6.410 L18.026,6.030 L18.140,5.798 L18.169,5.739 L18.183,5.710 C18.188,5.708 18.194,5.726 18.200,5.733 L18.268,5.846 L18.552,6.313 L18.660,6.475 L18.754,6.602 C18.816,6.688 18.882,6.769 18.951,6.848 C19.222,7.168 19.528,7.455 19.859,7.702 C20.520,8.193 21.297,8.524 22.080,8.628 C22.791,8.704 23.540,8.560 24.223,8.291 C24.902,8.018 25.559,7.637 26.005,7.063 C26.123,6.897 26.206,6.910 26.206,7.017 C26.259,7.021 26.345,7.090 26.419,7.209 C26.935,7.901 27.709,8.319 28.493,8.579 C29.285,8.829 30.137,8.920 30.933,8.681 C31.734,8.463 32.483,8.037 33.103,7.458 C33.414,7.169 33.691,6.840 33.925,6.481 C33.976,6.403 34.087,6.224 34.156,6.097 C34.234,5.987 34.319,5.702 34.384,5.956 L34.593,6.360 C34.627,6.420 34.667,6.513 34.696,6.547 L34.789,6.675 C35.129,7.173 35.628,7.605 36.210,7.896 C36.792,8.190 37.446,8.359 38.096,8.410 C39.392,8.515 40.631,8.170 41.597,7.586 C41.545,7.498 41.631,7.470 41.738,7.570 C42.238,8.072 42.877,8.399 43.539,8.559 C44.203,8.720 44.895,8.729 45.557,8.592 C46.218,8.456 46.854,8.186 47.405,7.783 C47.680,7.582 47.937,7.351 48.154,7.082 C48.275,6.960 48.363,6.807 48.459,6.663 L48.531,6.554 L48.567,6.501 L48.612,6.410 L48.796,6.030 L48.910,5.798 L48.939,5.739 L48.953,5.710 C48.958,5.708 48.964,5.726 48.970,5.733 L49.038,5.846 L49.322,6.313 L49.430,6.475 L49.524,6.602 C49.586,6.688 49.652,6.769 49.721,6.848 C49.992,7.168 50.298,7.455 50.629,7.702 C51.291,8.193 52.067,8.524 52.850,8.628 C53.561,8.704 54.310,8.560 54.993,8.291 C55.673,8.018 56.329,7.637 56.775,7.063 C56.953,6.812 57.056,6.964 56.905,7.248 C56.420,8.000 55.634,8.471 54.832,8.760 C54.025,9.042 53.128,9.149 52.286,8.905 C51.449,8.681 50.669,8.239 50.018,7.641 C49.692,7.342 49.400,7.002 49.149,6.630 L49.082,6.527 C49.064,6.502 49.049,6.476 49.034,6.451 C49.003,6.411 48.975,6.301 48.944,6.414 L48.854,6.599 C48.839,6.646 48.767,6.747 48.703,6.841 C48.353,7.386 47.855,7.896 47.248,8.269 C46.643,8.643 45.943,8.892 45.228,8.978 C44.514,9.067 43.783,8.992 43.139,8.749 C42.532,8.519 42.007,8.142 41.667,7.680 C41.658,7.689 41.654,7.697 41.643,7.706 C40.497,8.634 39.051,8.901 37.698,8.703 C37.018,8.598 36.350,8.367 35.746,7.985 C35.445,7.794 35.157,7.567 34.907,7.295 C34.769,7.170 34.665,7.013 34.552,6.863 L34.467,6.749 L34.425,6.691 L34.407,6.660 L34.343,6.549 C34.289,6.397 34.260,6.553 34.224,6.600 L34.154,6.715 L34.058,6.856 C33.995,6.951 33.926,7.041 33.855,7.129 C33.575,7.485 33.253,7.807 32.901,8.084 C32.194,8.638 31.369,9.020 30.487,9.166 C29.665,9.279 28.840,9.147 28.085,8.837 C27.342,8.525 26.612,8.033 26.211,7.260 C26.194,7.223 26.182,7.192 26.173,7.163 C26.163,7.190 26.151,7.218 26.135,7.248 C25.650,8.000 24.864,8.471 24.062,8.760 C23.255,9.042 22.358,9.149 21.516,8.905 C20.679,8.681 19.899,8.239 19.248,7.641 C18.922,7.342 18.630,7.002 18.379,6.630 L18.312,6.527 C18.294,6.502 18.278,6.476 18.264,6.451 C18.233,6.411 18.205,6.301 18.173,6.414 L18.083,6.599 C18.068,6.646 17.997,6.747 17.933,6.841 L17.761,6.554 L17.797,6.501 L17.841,6.410 Z"></path></g></svg> 